<?xml version="1.0" encoding="UTF-8" standalone="no"?>
<!-- Created with Inkscape (http://www.inkscape.org/) -->

<svg
   version="1.1"
   id="svg1"
   width="660"
   height="993.33331"
   viewBox="0 0 660 993.33331"
   sodipodi:docname="1719412962157.svg"
   inkscape:version="1.3.2 (091e20ef0f, 2023-11-25)"
   xmlns:inkscape="http://www.inkscape.org/namespaces/inkscape"
   xmlns:sodipodi="http://sodipodi.sourceforge.net/DTD/sodipodi-0.dtd"
   xmlns="http://www.w3.org/2000/svg"
   xmlns:svg="http://www.w3.org/2000/svg">
  <defs
     id="defs1" />
  <sodipodi:namedview
     id="namedview1"
     pagecolor="#ffffff"
     bordercolor="#000000"
     borderopacity="0.25"
     inkscape:showpageshadow="2"
     inkscape:pageopacity="0.0"
     inkscape:pagecheckerboard="0"
     inkscape:deskcolor="#d1d1d1"
     showgrid="false"
     inkscape:zoom="0.26804329"
     inkscape:cx="119.3837"
     inkscape:cy="768.53258"
     inkscape:window-width="2048"
     inkscape:window-height="1084"
     inkscape:window-x="0"
     inkscape:window-y="0"
     inkscape:window-maximized="1"
     inkscape:current-layer="layer1" />
  <g
     inkscape:groupmode="layer"
     id="layer1"
     inkscape:label="Layer 1">
    <path
       id="path4"
       style="fill:#808000;stroke-width:34.2"
       d="m 571.99051,654.56055 c 0,0 21.28324,0 23.01172,0.35547 1.72848,0.35547 9.7207,19.79296 9.7207,19.79296 l 0.57031,18.17383 2.6836,-0.89648 c 0,0 11.82114,-0.7294 14.41015,-0.38281 2.58901,0.34658 13.62305,1.33203 13.62305,1.33203 l 13.78515,8.14062 3.41407,33.95899 c 0,0 -0.18946,39.49034 -0.18946,41.56836 0,2.07801 0.37891,37.16015 0.37891,37.16015 l -5.62305,29.99024 c 0,0 -12.07069,14.35177 -14.3457,15.62109 -2.27501,1.26933 -20.38867,13.64648 -20.38867,13.64648 0,0 -17.55338,3.0625 -20.02539,3.0625 -2.472,0 -17.6354,-6.11709 -19.53125,-5.5039 -1.89584,0.61319 -23.80469,-24.78711 -23.80469,-24.78711 l -14.13672,-42.42969 -8.11914,-51.32031 -3.0332,-47.21485 29.67969,-4.54492 c 0,0 16.55664,-7.34928 16.55664,-9.37695 0,-2.02766 -1.89453,-21.03711 -1.89453,-21.03711 z m 27.25976,37.88672 -15.51757,6.04492 -13.69336,-2.33203 c 0,0 7.18952,39.96418 6.82812,42.51172 -0.3614,2.54753 11.31836,32.49218 11.31836,32.49218 0,0 7.14375,-1.87556 8.28125,-4.44531 1.13751,-2.56976 4.18945,-15.48023 4.18945,-18.43359 0,-2.95337 1.13672,-30.61719 1.13672,-30.61719 l 0.004,-18.21485 z" />
    <path
       id="path3"
       style="fill:#ffb380;stroke-width:34.2"
       d="m 542.77176,109.10938 c 2.95494,-0.023 11.17773,2.26171 11.17773,2.26171 l 3.82618,30.47461 2.66992,19.44727 c 0,0 -12.17569,4.04492 -16.44727,4.04492 -4.27156,0 -15.49805,2.25781 -15.49805,2.25781 0,0 0.75782,-32.54777 0.75782,-35.48632 0,-2.93856 1.61507,-20.31615 3.53906,-20.69532 1.92398,-0.37917 7.11833,-1.89285 9.45703,-2.26758 0.14617,-0.0234 0.32058,-0.0356 0.51758,-0.0371 z m 2.63476,143.0039 c 0,0 10.68868,4.17084 12.58008,6.44141 1.8914,2.27057 12.35938,13.34765 12.35938,13.34765 l 3.01172,46.26563 4.42187,84.2168 -7.61719,5.16211 c 0,0 -12.68006,-0.44526 -14.42187,-1.02735 -1.74181,-0.58208 -4.14453,-6.86133 -4.14453,-6.86133 l -7.86719,-83.83203 -7.11523,-61.86914 z m 31.30274,231.79297 c 0,0 4.98161,6.02971 6.07617,8.21289 1.09455,2.18318 4.88672,18.19073 4.88672,19.98438 0,1.79364 5.38672,50.36914 5.38672,50.36914 0,0 0.77317,13.55792 1.15234,15.92773 0.37916,2.36981 2.30664,44.22461 2.30664,44.22461 l 3.13477,33.5625 -28.3086,-1.45703 -7.41601,-58.31641 -4.72852,-88.78711 -0.5625,-12.96875 8.03711,-0.55273 1.10352,-7.93555 z m 25.44141,207.48828 0.0664,9.76758 -0.73633,36.16601 c 0,0 -1.38476,18.56008 -1.38476,20.73438 0,2.1743 -7.4336,9.2207 -7.4336,9.2207 l -10.88086,-6.91211 -8.68359,-36.07617 -3.66406,-26.76367 17.86719,-0.99609 z" />
    <path
       id="path2"
       style="fill:#a05a2c"
       d="m 269.92996,12 c 4.73266,0.01926 9.81973,2.810083 19.41016,9.332031 7.54736,5.132572 14.43775,9.333239 15.3125,9.333985 0.87475,7.46e-4 3.57475,-1.158638 6,-2.576172 7.84036,-4.582639 25.26006,-7.287074 47.07617,-7.308594 20.71418,-0.02043 31.06478,1.480465 41.24219,5.982422 10.99244,4.862475 36.30858,9.449631 58.625,10.621094 26.48114,1.390081 25.86251,0.957746 23.77148,16.585937 -1.53291,11.45676 -5.19155,21.853559 -9.28515,26.376953 -1.21662,1.34435 -4.17332,3.37323 -6.56836,4.509766 -2.39508,1.136535 -4.7232,3.234131 -5.17578,4.660156 -0.46935,1.478811 -2.48431,2.924595 -4.6875,3.365234 -6.93931,1.387859 -8.17947,5.982386 -2.5625,9.490238 2.17279,1.35695 2.64062,1.30866 2.64062,-0.26953 0,-2.341518 4.55574,-1.24864 13.2168,3.16992 12.48504,6.36939 14.87629,12.69149 9.11718,24.10937 -3.84679,7.62663 -8.56975,9.56816 -14.60351,6.00391 -2.66316,-1.57317 -7.81334,-2.71519 -14.04688,-3.11524 l -9.84375,-0.63281 -7.58593,8.18555 c -4.66288,5.03136 -8.6658,8.18464 -10.38672,8.18164 -1.53997,-0.003 -5.28526,-1.80586 -8.32227,-4.00586 -7.16386,-5.18947 -10.21507,-5.11138 -13.13086,0.33398 -1.74925,3.26682 -2.33161,7.61429 -2.36718,17.66602 -0.0463,13.05855 0.017,13.33046 3.01171,13.2207 2.08477,-0.0764 2.83131,0.47595 2.34766,1.73633 -1.0924,2.84673 3.12656,8.25341 8.63281,11.0625 5.19656,2.65109 6.62696,4.80249 6.62696,9.96485 0,2.08919 2.18652,4.93135 6.70312,8.71289 3.68613,3.08617 7.28862,6.7067 8.00586,8.04687 1.89272,3.53658 -0.79451,8.49126 -6.90039,12.72266 -5.78488,4.00891 -6.33324,6.68959 -2.99805,14.67187 1.17914,2.82209 2.64687,8.68921 3.26172,13.03906 0.61485,4.34988 1.90142,8.40535 2.85742,9.01172 2.4378,1.54621 16.7651,1.39948 22.64063,-0.23242 2.6967,-0.749 7.79737,-3.40434 11.33398,-5.90039 3.53664,-2.49605 9.42904,-6.6535 13.09571,-9.23828 10.55848,-7.44312 27.05011,-23.89249 28.08398,-28.01172 0.58193,-2.31862 -0.003,-6.80123 -1.55664,-11.92773 -4.91372,-16.21576 -2.04845,-30.21904 5.78125,-28.25391 2.7002,0.67771 2.99446,0.38515 2.31836,-2.30859 -0.6173,-2.45951 0.30977,-3.95582 4.57422,-7.38282 1.48656,-1.19463 2.75361,-2.58825 3.86523,-4.00586 2.65011,0.98182 5.04309,1.74024 6.19922,1.74024 3.52656,0 24.2168,-5.55469 24.2168,-5.55469 l 23.36133,-5.51172 c 2.09106,0.43055 4.50451,0.80491 7.57421,1.10547 11.55991,1.13186 13.90541,2.91205 14.36329,10.90039 0.36042,6.28806 2.10032,12.08923 6.20703,20.70117 1.78967,3.75303 2.42038,6.9879 1.88476,9.66602 -0.44462,2.22313 -0.23808,4.02539 0.46289,4.02539 5.14226,0 8.86015,19.97276 6.66992,35.83203 -1.81549,13.14585 -7.38032,23.25501 -20.33007,36.93555 -1.99317,2.10564 -3.20009,3.57364 -4.68946,5.25781 -3.70125,-3.6882 -6.75578,-6.59016 -7.69922,-6.91211 -3.17701,-1.08419 -14.88085,-11.25391 -14.88085,-11.2539 l -14.94922,-9.32422 -11.05664,0.80078 c 0,0 2.66601,24.99633 2.66601,26.52929 0,1.53297 3.01011,25.53051 1.60156,28.75196 -1.40855,3.22145 -15.0332,14.28125 -15.0332,14.28125 0,0 -24.49556,31.25631 -27.03125,34.27929 -2.53569,3.02298 -21.36133,33.96485 -21.36133,33.96485 l -7.34961,15.77148 c 0,0 2.88323,11.89199 4.53321,12.83399 1.64997,0.94199 7.10615,5.87252 11.4414,6.63086 4.33527,0.75834 13.15664,2.37345 15.43164,1.13671 2.27502,-1.23674 11.83859,-2.00808 13.68555,-3.09374 1.84697,-1.08567 9.7818,-8.16277 11.24219,-11.52344 1.46039,-3.36068 9.74219,-18.46875 9.74219,-18.46875 0,0 8.47603,-3.0165 9.23437,-1.20508 0.75834,1.81143 5.02082,11.103 6.81445,11.86133 1.79365,0.75834 13.50782,0.88086 13.50782,0.88086 0,0 11.3164,-2.59046 11.3164,-4.57813 0,-1.98768 1.12396,-20.76184 2.64063,-23.41601 1.51668,-2.65418 9.03775,-7.24343 10.93359,-10.55078 0.26347,-0.45964 1.99717,-2.9512 3.17578,-4.67188 10.08069,7.5902 14.68857,9.91602 19.86133,9.91602 6.55802,0 11.37581,3.80967 16.86133,13.33398 7.21194,12.52185 7.27516,14.79854 0.93359,33.38281 -4.86617,14.26056 -5.79705,18.79299 -6.56641,31.95117 -1.27076,21.73376 -3.07514,24.28909 -17.86913,25.33204 -8.69317,0.61284 -9.5967,0.96229 -11.19532,4.31054 -0.0197,0.0413 -0.0331,0.15536 -0.0527,0.19922 -3.19899,-0.64155 -6.04309,-1.13649 -7.01172,-1.00781 -2.85414,0.37917 -17.37045,3.48116 -18.89453,3.72851 -1.52408,0.24735 -8.03095,6.076 -9.03516,7.69336 -0.74051,1.19269 -6.07385,8.54618 -9.52734,13.32813 -2.05201,-0.39194 -4.24375,0.57926 -5.81836,2.98242 -3.76701,5.74915 -8.3804,6.44807 -49.27734,7.4668 -37.59191,0.9364 -39.05515,1.07561 -52.66602,4.98242 -7.69997,2.21018 -16.7,5.53723 -20,7.39453 -6.88771,3.87655 -17.41769,7.00585 -28,8.32227 -8.87295,1.10379 -14.35557,3.72558 -16.0293,7.66406 -0.68621,1.61473 -2.17374,7.07773 -3.30468,12.14062 -1.13096,5.06292 -3.19849,11.78711 -4.59375,14.94141 l -2.53711,5.73438 4.55273,5.72656 c 2.50382,3.14941 4.55941,6.65907 4.56641,7.79883 0.0423,6.78252 19.28081,27.49907 32.34179,34.82617 4.34715,2.4387 10.40283,6.38945 13.45508,8.77734 8.28921,6.48497 14.17186,10.09456 20.10938,12.3418 6.88984,2.60768 13.4151,11.12466 15.3164,19.99023 2.0922,9.75554 1.72224,49.40074 -0.67187,71.99219 -1.12686,10.63331 -2.38522,37.71761 -2.79688,60.1875 -0.65322,35.65484 -0.47859,41.39568 1.36914,45.09961 1.28428,2.57444 1.80892,5.78354 1.33399,8.1582 -0.6901,3.45047 0.0473,4.6638 6.2207,10.23438 3.85223,3.47602 10.13348,10.53593 13.95899,15.68945 6.93096,9.3371 10.12922,11.6297 24.04296,17.23047 4.7261,1.90241 11.66687,2.84627 29.07422,3.95508 6.02598,0.38384 9.49501,3.52273 16.10547,14.57031 4.5269,7.56542 8.82031,22.11568 8.82031,29.89648 0,2.10546 -0.95274,7.0308 -2.11523,10.94532 l -2.11328,7.11718 -51.37305,-0.78906 c -48.12568,-0.73831 -51.55525,-0.94824 -54.2207,-3.3418 -1.56495,-1.4053 -3.96355,-2.95264 -5.33008,-3.4375 -1.65467,-0.58705 -2.25759,-1.74626 -1.80664,-3.4707 0.45551,-1.74188 -0.36803,-3.27447 -2.51562,-4.68164 -1.94066,-1.27157 -3.19336,-3.38211 -3.19336,-5.38281 0,-1.895 -1.16692,-4.00264 -2.75196,-4.96875 -1.51413,-0.92288 -4.78247,-4.48585 -7.26367,-7.91797 -5.22124,-7.2223 -13.54228,-13.61177 -31.31641,-24.04687 -23.98599,-14.08213 -30.66796,-20.40249 -30.66796,-29.00782 0,-5.81702 1.94063,-8.90179 6.28515,-9.99218 4.98027,-1.24997 5.67151,-2.71535 5.69531,-12.08399 0.0256,-10.07571 -1.95932,-13.05161 -11.77734,-17.65625 -4.14451,-1.94377 -8.19953,-4.40418 -9.00976,-5.46875 -0.90451,-1.18833 -1.22254,-5.4369 -0.82422,-11.00391 0.47945,-6.70101 0.0823,-10.26424 -1.52539,-13.65234 -1.19657,-2.52159 -2.17579,-6.44429 -2.17579,-8.7168 v -4.13086 l -13,0.0195 c -14.03585,0.0221 -15.49678,0.44769 -16.89257,4.92187 -1.78933,5.73553 -26.24833,22.99473 -50.90235,35.91797 -18.07185,9.47299 -32.6386,15.16799 -42.2832,16.53125 -4.38549,0.61989 -8.59299,1.74728 -9.34961,2.50391 -0.75663,0.7566 -1.82639,4.53882 -2.37695,8.40625 -3.96362,27.84244 1.75057,36.03522 24.97851,35.8125 8.09464,-0.0776 11.25979,0.40096 12.4961,1.89062 0.91065,1.09728 3.24827,1.99609 5.19531,1.99609 1.94703,0 4.87623,0.93533 6.50781,2.07813 7.84918,5.49777 26.03766,39.60328 26.20313,49.13477 0.0807,4.64967 -0.34321,5.35588 -3.91016,6.51171 -4.3045,1.39482 -112.09475,3.04175 -117.08594,1.78907 -2.03477,-0.51069 -3.50025,-2.38308 -4.53906,-5.80078 -0.84369,-2.77578 -4.88341,-14.64759 -8.97656,-26.38086 -8.54105,-24.48339 -16.43565,-39.10122 -40.95899,-75.84375 -17.365922,-26.01886 -24.152682,-38.25664 -23.517572,-42.4043 0.27209,-1.77707 2.2123,-3.29622 5.74414,-4.49805 7.534962,-2.56405 18.000002,-13.73667 18.000002,-19.2168 0,-3.30076 -0.87039,-4.62993 -4.20899,-6.43164 -10.428692,-5.6279 -12.481142,-11.17168 -7.47461,-20.17578 4.58492,-8.24579 6.86099,-22.59335 5.06641,-31.93359 C 104.94564,713.42249 94.344468,684.5595 88.636988,676.05078 81.308978,665.12613 82.152998,666.99687 75.965118,648 c -13.28445,-40.78333 -16.59409,-85.85924 -8.14453,-110.94141 6.87055,-20.39496 24.28427,-54.98643 32.589842,-64.74023 2.33499,-2.74214 7.3935,-10.08506 11.24219,-16.31836 8.26008,-13.37806 24.46053,-36.54062 29.01367,-41.48242 1.76458,-1.91523 4.93605,-7.13802 7.04883,-11.60547 2.11278,-4.46747 7.8728,-14.89966 12.79883,-23.18359 4.926,-8.28395 13.40377,-23.58972 18.83984,-34.01368 5.43607,-10.42396 11.37848,-20.04246 13.20508,-21.37304 2.09561,-1.52656 3.81128,-4.60332 4.65039,-8.33789 0.73139,-3.25516 3.6745,-10.9204 6.53906,-17.03321 8.13426,-17.35806 8.51991,-21.15913 7.54492,-74.42968 -0.69843,-38.16007 -0.49503,-49.15645 1.07617,-58.13477 2.50899,-14.3369 6.48221,-26.27379 11.41407,-34.28906 4.8191,-7.83203 4.88283,-9.43881 0.53906,-13.51953 -3.05079,-2.8661 -3.36638,-4.06892 -3.03125,-11.53125 0.30218,-6.72856 -0.0828,-8.665379 -1.99609,-10.064457 -2.04504,-1.495364 -2.24044,-2.980263 -1.4336,-10.855469 0.80492,-7.856489 1.52796,-9.719357 5.21289,-13.404296 3.61679,-3.616783 5.31935,-4.30229 10.99805,-4.431641 5.60211,-0.127607 6.8322,0.277729 7.39648,2.435547 0.87445,3.34387 3.11547,3.303949 4.92969,-0.08594 1.06263,-1.985536 0.90396,-4.445394 -0.61914,-9.574218 -2.5167,-8.47462 -2.58895,-19.596389 -0.14844,-22.814454 0.99911,-1.31741 1.51098,-3.560705 1.13868,-4.984375 -0.42259,-1.615971 0.13108,-2.898495 1.4746,-3.414062 1.18367,-0.454217 3.30261,-3.422722 4.70704,-6.597656 1.85377,-4.1908 4.03045,-6.52623 7.94531,-8.523438 3.48169,-1.776221 6.19361,-2.76351 9.0332,-2.751953 z" />
    <path
       style="fill:#000000"
       d="m 554.94851,955.96661 c 1.16249,-3.91452 2.11361,-8.83996 2.11361,-10.94542 0,-7.78083 -4.29215,-22.33135 -8.81905,-29.8968 -6.61049,-11.04761 -10.07966,-14.18596 -16.10564,-14.5698 -17.40741,-1.10881 -24.34921,-2.05322 -29.07531,-3.95563 -13.9138,-5.60077 -17.11073,-7.89176 -24.04172,-17.22889 -3.82551,-5.15355 -10.10729,-12.21412 -13.95952,-15.69017 -6.17345,-5.57058 -6.91121,-6.78433 -6.22111,-10.2348 0.47493,-2.37466 -0.05,-5.58435 -1.33428,-8.15879 -1.84776,-3.70393 -2.02196,-9.44357 -1.36874,-45.09853 0.41166,-22.46995 1.67045,-49.55446 2.79731,-60.1878 2.39411,-22.59151 2.76415,-62.23612 0.67195,-71.99169 -1.90133,-8.8656 -8.42737,-17.38265 -15.31724,-19.99033 -5.93752,-2.24724 -11.82028,-5.85802 -20.10952,-12.34302 -3.05225,-2.38789 -9.10629,-6.33692 -13.45344,-8.77562 -13.06104,-7.3271 -32.30094,-28.04449 -32.34329,-34.82704 -0.007,-1.13976 -2.06152,-4.64911 -4.56534,-7.79855 l -4.55239,-5.72625 2.53691,-5.7351 c 1.39529,-3.1543 3.46224,-9.87749 4.5932,-14.94041 1.13097,-5.06292 2.61775,-10.52645 3.30396,-12.14118 1.67373,-3.93848 7.15695,-6.55994 16.02993,-7.66373 10.58234,-1.31642 21.11226,-4.44644 28,-8.32299 3.3,-1.8573 12.3,-5.18523 20,-7.39541 13.6109,-3.90681 15.07467,-4.04527 52.66667,-4.98167 40.89709,-1.01873 45.50908,-1.71758 49.27609,-7.46676 2.28943,-3.49411 5.89941,-4.1914 8.45724,-1.63357 1.02515,1.02514 1.6,6.26016 1.6,14.57071 0,7.1339 1.16928,27.2639 2.59839,44.73334 5.77893,70.64146 8.31634,114.63937 6.91381,119.8838 -0.61388,2.29549 -2.08669,4.06079 -3.60809,4.32462 -1.41393,0.2452 -3.34657,1.4452 -4.29476,2.66667 -1.33676,1.72202 -4.95144,2.40604 -16.09298,3.04531 -15.54105,0.8917 -19.7704,2.28786 -20.8435,6.8807 -1.46322,6.26255 -1.16587,39.38734 0.43353,48.29484 0.92173,5.13333 2.15264,13.23333 2.73536,18 1.45572,11.9078 6.32826,32.82062 11.18366,48 10.86677,33.97264 10.07337,32.35603 21.64125,44.09582 17.33563,17.59326 24.17787,20.71159 42.92643,19.56357 16.18852,-0.99126 29.51319,-6.42591 37.46893,-15.28222 8.60762,-9.58198 15.78942,-20.47654 16.94861,-25.7105 0.56845,-2.56667 1.50288,-9.76667 2.07651,-16 0.57363,-6.23334 1.70395,-16.73334 2.51182,-23.33334 2.88988,-23.60926 -0.53674,-94.27456 -5.15932,-106.39782 -1.9395,-5.08655 -7.62193,-7.16385 -22.77298,-8.32501 -15.60739,-1.19613 -18.66667,-2.23106 -18.66667,-6.31483 0,-1.70701 -1.78443,-5.53011 -3.9654,-8.49577 -3.34132,-4.54349 -3.7841,-6.02427 -2.81342,-9.40885 1.20261,-4.19326 -0.19551,-22.95445 -2.54294,-34.12334 -0.7397,-3.51943 -1.34491,-9.56943 -1.34491,-13.44445 0,-3.87501 -0.38937,-7.43485 -0.86527,-7.91075 -1.2708,-1.2708 -1.46287,-31.63101 -0.20503,-32.4084 1.60133,-0.98968 1.26131,-5.84484 -0.82934,-11.8422 -1.89983,-5.44999 -5.5762,-54.89835 -5.13143,-69.01958 0.13323,-4.23006 1.02479,-9.33006 1.98124,-11.33334 1.59862,-3.34828 2.50242,-3.69614 11.19559,-4.30898 14.79404,-1.04295 16.5971,-3.59933 17.86787,-25.33315 0.76936,-13.15824 1.70101,-17.69103 6.56719,-31.95162 6.34158,-18.58433 6.27791,-20.86002 -0.93405,-33.3819 -5.48554,-9.52434 -10.30202,-13.33333 -16.86007,-13.33333 -5.67045,0 -10.31912,-2.45962 -22.6516,-11.98499 -2.85902,-2.20825 -6.30902,-4.01501 -7.66666,-4.01501 -2.19249,0 -2.46844,-1.16875 -2.46844,-10.45476 0,-5.75012 -0.85881,-13.30838 -1.90847,-16.79613 -1.04966,-3.48776 -1.60056,-7.14377 -1.22423,-8.12447 0.37633,-0.98071 0.0238,-7.21464 -0.78334,-13.85318 -1.87769,-15.44302 -0.79721,-18.17414 12.92518,-32.67091 12.94981,-13.68057 18.51417,-23.79024 20.32967,-36.93612 C 612.59117,223.97176 608.87365,204 603.73139,204 c -0.70097,0 -0.90879,-1.80236 -0.46417,-4.02549 0.53562,-2.67812 -0.0953,-5.91363 -1.88497,-9.66666 -4.10671,-8.61197 -5.8458,-14.41266 -6.20622,-20.70072 -0.45788,-7.98837 -2.80249,-9.76767 -14.36243,-10.89953 -10.70297,-1.04794 -14.92371,-2.68041 -16.3849,-6.33723 -0.52094,-1.30371 -1.4343,-9.87037 -2.0297,-19.03704 -1.19248,-18.35908 -2.34396,-22.68637 -6.88273,-25.86545 -3.17337,-2.22271 -15.79887,-2.87517 -25.28282,-1.30655 l -4.82866,0.79864 -0.71966,24.85335 c -0.39581,13.66934 -1.39912,27.09613 -2.22958,29.83732 -0.93906,3.09966 -3.53216,6.60909 -6.85868,9.28236 -4.26445,3.427 -5.19181,4.92376 -4.57451,7.38327 0.6761,2.69377 0.38221,2.98649 -2.31799,2.30878 -7.82973,-1.96513 -10.69529,12.03896 -5.78157,28.25475 1.55344,5.12653 2.13837,9.60914 1.55644,11.92776 -1.03387,4.11923 -17.52527,20.56796 -28.08378,28.01111 -3.66667,2.58478 -9.56028,6.74184 -13.09692,9.23789 -3.53664,2.49605 -8.63664,5.15109 -11.33334,5.90009 -5.87553,1.6319 -20.20347,1.77958 -22.64127,0.23337 -0.956,-0.60637 -2.24125,-4.66147 -2.8561,-9.01135 -0.61485,-4.34988 -2.08267,-10.21785 -3.26181,-13.03994 -3.33522,-7.98231 -2.78751,-10.66338 2.9974,-14.67232 6.10591,-4.2314 8.79295,-9.18557 6.90023,-12.72215 -0.71724,-1.34017 -4.32,-4.96176 -8.00613,-8.04796 -4.51663,-3.78154 -6.70206,-6.62219 -6.70206,-8.71141 0,-5.16236 -1.43088,-7.31379 -6.62744,-9.96488 -5.50628,-2.80909 -9.72551,-8.21549 -8.63311,-11.06222 0.48365,-1.26038 -0.2636,-1.81294 -2.34837,-1.73653 -2.99474,0.10976 -3.05678,-0.16268 -3.0105,-13.22126 0.0356,-10.05176 0.61832,-14.39985 2.36757,-17.66667 2.91579,-5.44539 5.96622,-5.52283 13.13011,-0.33333 3.03701,2.2 6.78182,4.00253 8.32179,4.00562 1.72092,0.003 5.72361,-3.14909 10.38649,-8.18048 l 7.58654,-8.18611 9.84298,0.63168 c 6.23354,0.40005 11.38504,1.5426 14.0482,3.11577 6.03379,3.56425 10.75558,1.62289 14.6024,-6.00377 5.75911,-11.41791 3.36878,-17.7393 -9.11632,-24.10872 -8.66109,-4.41856 -13.21701,-5.511132 -13.21701,-3.16962 0,1.57822 -0.4681,1.62589 -2.64092,0.26894 -5.61697,-3.507852 -4.37573,-8.103316 2.56358,-9.491178 2.20322,-0.440642 4.21643,-1.886543 4.68578,-3.365357 0.45261,-1.426031 2.78253,-3.522679 5.17761,-4.659217 2.39507,-1.136539 5.3501,-3.166358 6.56672,-4.510711 4.09363,-4.523409 7.75389,-14.919097 9.2868,-26.37589 2.09103,-15.628239 2.7091,-15.19698 -23.77213,-16.587067 -22.31648,-1.171466 -47.63225,-5.757448 -58.62472,-10.619938 -10.17744,-4.501969 -20.52848,-6.003622 -41.24272,-5.983191 -21.81617,0.02152 -39.23582,2.725909 -47.07621,7.30856 -2.42525,1.41754 -5.12525,2.576735 -6,2.575989 -0.87475,-7.46e-4 -7.7656,-4.200746 -15.31299,-9.333333 -15.34473,-10.43515 -19.15838,-11.317524 -28.44289,-6.580919 -3.91486,1.997214 -6.09223,4.332875 -7.94603,8.523687 -1.40443,3.174946 -3.52196,6.14426 -4.70563,6.598477 -1.34355,0.51557 -1.89781,1.798368 -1.47522,3.414345 0.3723,1.423673 -0.14055,3.666382 -1.13966,4.983798 -2.44054,3.218074 -2.36811,14.339623 0.14859,22.814267 1.5231,5.128842 1.68239,7.589792 0.61976,9.575334 -1.81422,3.389896 -4.05504,3.428242 -4.92949,0.08436 -0.56428,-2.157824 -1.79362,-2.56257 -7.39576,-2.434963 -5.67873,0.129351 -7.38153,0.815591 -10.99832,4.432383 -3.68496,3.684951 -4.40918,5.546601 -5.2141,13.403114 -0.80684,7.87523 -0.61054,9.360853 1.4345,10.856223 1.91336,1.399081 2.29727,3.335697 1.99509,10.064257 -0.33513,7.46236 -0.0187,8.66572 3.03209,11.53182 4.34377,4.08075 4.27966,5.68748 -0.53947,13.51954 -4.93186,8.0153 -8.90533,19.95156 -11.41432,34.28849 -1.57123,8.97835 -1.77484,19.97508 -1.07641,58.13524 0.97499,53.27073 0.58968,57.07199 -7.54461,74.43011 -2.86456,6.11281 -5.8067,13.77753 -6.53809,17.03269 -0.83911,3.7346 -2.55528,6.8112 -4.65089,8.33776 -1.8266,1.33058 -7.76882,10.94797 -13.20492,21.37196 -5.4361,10.42399 -13.91421,25.7305 -18.84024,34.01445 -4.92603,8.28396 -10.68506,18.71697 -12.79784,23.18444 -2.11278,4.46748 -5.28518,9.6897 -7.04976,11.60493 -4.55314,4.94183 -20.75324,28.10414 -29.01335,41.48223 -3.84869,6.23333 -8.90807,13.5769 -11.24306,16.31904 -8.305602,9.75383 -25.717462,44.34402 -32.588042,64.73904 -8.44959,25.08223 -5.14076,70.15847 8.14372,110.94192 6.18791,18.99693 5.34315,17.12681 12.67119,28.05149 5.70748,8.50875 16.308962,37.37097 19.140942,52.11062 1.79458,9.34027 -0.482,23.68838 -5.06692,31.9342 -5.006562,9.00413 -2.952532,14.54707 7.47619,20.175 3.3386,1.80171 4.20882,3.13168 4.20882,6.43247 0,5.48013 -10.46501,16.65231 -18.000002,19.21636 -3.53184,1.20183 -5.47213,2.72129 -5.74425,4.49836 -0.63511,4.14769 6.1519,16.38501 23.517882,42.40393 24.5234,36.74265 32.41776,51.36078 40.95884,75.84423 4.09318,11.73333 8.13245,23.60442 8.97614,26.3802 1.03881,3.41773 2.50391,5.29031 4.53868,5.801 4.99119,1.25271 112.78154,-0.39518 117.08604,-1.79 3.56695,-1.15583 3.9902,-1.86065 3.90948,-6.51035 -0.16547,-9.53149 -18.35378,-43.63856 -26.20299,-49.13636 -1.63158,-1.1428 -4.55954,-2.07783 -6.50657,-2.07783 -1.94704,0 -4.28515,-0.89776 -5.1958,-1.99504 -1.23631,-1.48966 -4.40193,-1.96871 -12.4966,-1.89109 -23.22803,0.22272 -28.94211,-7.96969 -24.97849,-35.81222 0.55056,-3.86743 1.62008,-7.65075 2.37671,-8.40738 0.75662,-0.75663 4.96381,-1.88286 9.3493,-2.50275 9.64463,-1.36326 24.2114,-7.05839 42.28331,-16.53141 24.65408,-12.92327 49.1139,-30.18248 50.90323,-35.91804 1.39582,-4.47421 2.85584,-4.8996 16.89175,-4.92165 l 13,-0.0204 v 4.13182 c 0,2.27251 0.97902,6.19495 2.17559,8.71654 1.60776,3.3881 2.00625,6.95139 1.5268,13.65243 -0.39832,5.56701 -0.0801,9.81497 0.82441,11.0033 0.81026,1.06457 4.86416,3.52593 9.00867,5.4697 9.81805,4.60464 11.80305,7.58047 11.77745,17.65621 -0.0238,9.36867 -0.71451,10.83435 -5.69478,12.08432 -4.34455,1.09042 -6.2848,4.17525 -6.2848,9.9923 0,8.60536 6.68058,14.92427 30.66666,29.00643 17.77416,10.43516 26.0949,16.8244 31.31617,24.04673 2.4812,3.43212 5.75009,6.9953 7.26422,7.91818 1.58504,0.96611 2.75295,3.07426 2.75295,4.96926 0,2.0007 1.25187,4.11156 3.19253,5.38313 2.14762,1.40717 2.9709,2.93932 2.51539,4.6812 -0.45095,1.72444 0.1528,2.88384 1.80747,3.47092 1.36653,0.48486 3.76502,2.03136 5.32997,3.43669 2.66545,2.39356 6.09389,2.60496 54.21972,3.34327 l 51.37436,0.78815 z m -62.41217,-7.90003 c -2.75896,-5.80935 -6.45864,-10.36086 -13.81838,-17 -10.58891,-9.55215 -15.33302,-11.33993 -16.08269,-6.06064 -0.27814,1.95878 0.41859,3.31085 2,3.88114 2.65516,0.95751 16.78419,13.62064 17.60084,15.77474 0.27902,0.73599 1.25805,2.23816 2.17562,3.33816 0.91757,1.1 2.07971,3.35 2.58254,5 0.91186,2.99226 0.87396,3 -14.68492,3 -21.45769,0 -22.57084,-0.76108 -36.4282,-24.90656 -3.0218,-5.26528 -6.86832,-10.66528 -8.54782,-12 -1.6795,-1.33473 -3.64383,-4.50509 -4.36517,-7.04525 -1.08785,-3.8308 -2.21998,-4.8815 -6.63807,-6.16066 -9.77583,-2.83036 -44.6013,-22.0049 -44.6013,-24.557 0,-0.67813 3.6,-5.08138 8,-9.78499 8.46216,-9.04607 9.17633,-10.81394 6.0424,-14.95736 -1.08152,-1.42991 -1.97657,-5.50124 -2,-9.09747 -0.0522,-8.01124 -3.70655,-14.39478 -9.93159,-17.34876 -2.4826,-1.17807 -5.09968,-2.14195 -5.81572,-2.14195 -2.92893,0 -4.85005,-4.80125 -6.56767,-16.41392 -0.99676,-6.73901 -2.15252,-14.46406 -2.56837,-17.16678 -0.45195,-2.93738 -2.71428,-7.20479 -5.62423,-10.60893 l -4.86815,-5.69489 0.10807,-12.72441 c 0.094,-11.06447 0.76266,-14.63392 5.12584,-27.36207 6.10361,-17.8053 7.40692,-30.18226 4.30265,-40.86057 -1.1777,-4.05114 -3.35521,-8.46432 -4.83892,-9.80706 -2.66694,-2.41355 -2.69764,-2.37813 -2.69764,3.1117 0,3.90306 0.79235,6.23147 2.66666,7.83631 5.04142,4.31659 2.62769,19.30244 -4.29605,26.67243 -3.78243,4.02621 -6.1634,3.8071 -7.04676,-0.64847 -2.91571,-14.70647 -16.6682,-51.56691 -24.99745,-67 -10.1575,-18.82063 -12.7811,-24.69841 -22.30998,-49.98225 -11.0462,-29.30985 -14.39961,-41.97668 -15.55345,-58.74996 -1.01045,-14.68889 0.82668,-26.24601 6.45969,-40.63691 4.31356,-11.02005 4.27595,-14.06556 -0.12453,-10.08319 -10.23113,9.25905 -16.07333,54.37645 -9.55372,73.78034 1.41776,4.21958 3.5118,11.44718 4.65343,16.06133 1.14163,4.61415 6.36378,18.41415 11.60478,30.66667 11.65916,27.25702 15.83071,38.21224 15.83071,41.57423 0,1.41316 1.73459,5.14947 3.85465,8.3029 2.12005,3.15343 5.14242,9.93351 6.71636,15.06684 4.66422,15.2121 12.37496,35.85032 14.19737,38 0.94011,1.10894 2.11897,7.79037 2.64599,14.99663 0.78695,10.76045 0.55083,14.04312 -1.37231,19.0788 -1.27754,3.3452 -2.03878,7.56796 -1.69164,9.38392 0.43963,2.29977 -0.1247,3.70627 -1.85962,4.63477 -1.36994,0.73317 -2.4908,2.37061 -2.4908,3.63875 0,5.55575 -28.25413,34.22608 -39.33333,39.91274 -2.2,1.1292 -6.1,3.69483 -8.66667,5.70141 -8.36196,6.53722 -43.7552,21.16241 -56.29408,23.26183 -6.16414,1.03207 -12.24955,6.03172 -16.09772,13.22553 -2.47046,4.61831 -2.94153,7.63424 -2.94153,18.83228 0,11.08347 0.48228,14.23328 2.85812,18.66667 4.87019,9.08792 6.72395,10.0325 23.82677,12.14092 8.55938,1.0552 17.23358,2.78268 19.276,3.83886 2.04243,1.05617 5.95792,5.30168 8.7011,9.43445 2.95132,4.44635 6.63462,8.20666 9.02178,9.21039 3.53296,1.4855 4.33502,2.8809 6.45563,11.23129 3.39437,13.36614 3.1137,13.7737 -10.51856,15.27396 l -5.71248,0.62867 -5.13995,-10.21261 c -5.19511,-10.32223 -9.26794,-14.563 -21.20046,-22.07464 -6.33628,-3.98876 -12.6033,-4.25666 -13.30224,-0.56864 -0.29367,1.54961 1.41009,3.04718 5.55023,4.87856 10.72014,4.74203 17.579,10.91557 21.97422,19.7786 l 4.07955,8.22647 -8.93486,0.44019 c -14.98262,0.73815 -16.74011,0.26484 -19.64618,-5.29093 -9.27179,-17.7256 -18.94045,-27.40762 -26.62201,-26.6588 -2.9331,0.28592 -4,1.07859 -4,2.97183 0,1.74833 1.29143,2.91836 4,3.62401 6.63959,1.72977 13.33364,9.30638 18.79119,21.26864 l 1.58519,3.47455 -18.68782,0.7398 -18.68782,0.73979 -3.08546,-3.54768 c -1.697,-1.95123 -3.46544,-5.04768 -3.92985,-6.88102 -0.46442,-1.83333 -3.51177,-9.47411 -6.7719,-16.9795 -3.26012,-7.5054 -6.14185,-15.48716 -6.40383,-17.73726 -0.79064,-6.79051 -12.93668,-28.42961 -35.7373,-63.66875 -5.83101,-9.01204 -11.79546,-19.08389 -13.25433,-22.3819 -3.39807,-7.68191 -2.91305,-13.07725 1.22842,-13.66474 4.18035,-0.59301 8.79297,-8.01925 15.12848,-24.35663 12.38306,-31.93213 14.34083,-45.84952 8.51687,-60.54454 l -3.17057,-8 -0.10404,12 c -0.11574,13.3496 -2.0764,27.55417 -4.50717,32.65343 -2.06008,4.32165 -8.71864,5.24137 -11.9662,1.65286 -2.1145,-2.3365 -2.11488,-3.12725 -0.006,-12.84447 1.97307,-9.09215 2.058,-12.64016 0.69651,-29.09872 -1.29886,-15.70137 -2.0958,-19.74117 -4.90949,-24.8869 -1.84742,-3.37858 -7.8107,-15.14287 -13.251752,-26.14287 -5.44104,-11 -11.74834,-21.98703 -14.01622,-24.41562 -2.26788,-2.4286 -4.12341,-5.84182 -4.12341,-7.58495 0,-1.74312 -1.56858,-12.05609 -3.48574,-22.91771 -4.39604,-24.90577 -4.56716,-44.58694 -0.60642,-69.74838 3.66759,-23.29917 4.63376,-26.08632 11.6763,-33.68293 3.23756,-3.49228 5.53593,-6.91678 5.10749,-7.61001 -0.42844,-0.69324 1.04921,-4.68639 3.28368,-8.87368 2.3886,-4.47614 3.74122,-8.62604 3.28257,-10.0711 -0.61761,-1.94591 0.10983,-2.63583 3.492462,-3.31235 2.92635,-0.58527 4.95162,-2.1385 6.42777,-4.92962 1.18537,-2.24131 3.80522,-5.79643 5.82189,-7.90027 2.1226,-2.21436 3.67021,-5.32604 3.67509,-7.38927 0.006,-2.51545 1.12177,-4.19733 3.79235,-5.71625 2.08854,-1.18788 6.65389,-6.86318 10.18938,-12.66667 3.523,-5.78298 14.03303,-22.81452 23.35563,-37.84785 30.36722,-48.96925 53.49559,-93.47075 61.22563,-117.80473 5.53272,-17.41691 6.30821,-32.25478 4.10781,-78.59737 -0.95057,-20.02008 -1.29902,-39.26289 -0.77433,-42.7618 C 220.05651,160.23753 223.54085,156 228.42525,156 c 6.47504,0 21.2068,16.38861 25.3903,28.24589 1.18408,3.35605 5.3604,9.1184 10.39883,14.34798 8.99173,9.33284 12.13001,13.99804 10.83071,16.10035 -0.46229,0.74801 1.01152,1.30578 3.45032,1.30578 7.06022,0 14.13728,2.78563 19.19358,7.55489 5.13064,4.83936 14.32564,9.34943 28.52157,13.98959 7.9576,2.60106 12.73417,2.97215 47.29509,3.67439 43.84846,0.89095 40.99104,0.019 43.55323,13.2898 0.7955,4.12023 3.20913,13.19132 5.36363,20.15799 4.82183,15.59157 7.4564,35.55687 6.81168,51.62027 -0.18945,4.72005 -7.05142,13.71306 -10.46352,13.71306 -1.10837,0 -7.19622,-4.9046 -13.52855,-10.89912 -12.63979,-11.9655 -20.95192,-18.43421 -23.68749,-18.43421 -0.97573,0 -5.16654,-2.17014 -9.31291,-4.82254 -4.14636,-2.6524 -13.60801,-7.5062 -21.02589,-10.78623 -7.41787,-3.28002 -14.44341,-6.81814 -15.61231,-7.86248 -1.16889,-1.04433 -2.88716,-5.34053 -3.81836,-9.5471 -0.9312,-4.20657 -2.04069,-8.22848 -2.46552,-8.93756 -1.06744,-1.78166 -4.20036,10.82677 -4.2318,17.03088 -0.0279,5.51065 0.6393,5.97157 17.58707,12.14893 3.45369,1.25886 8.43034,3.74847 11.05921,5.53247 2.62887,1.78399 5.80879,3.24363 7.06649,3.24363 1.2577,0 2.98334,1.11546 3.83475,2.47879 0.85142,1.36334 3.31777,2.83275 5.48078,3.26535 2.4727,0.49454 4.2034,1.82156 4.66179,3.57444 0.57651,2.20457 1.42041,2.61437 4.03328,1.95859 2.72936,-0.68503 3.73455,-0.0874 5.77757,3.43522 1.36034,2.34549 6.88279,7.25312 12.2721,10.90584 6.78099,4.59595 10.88733,8.51419 13.33334,12.7226 1.94401,3.34471 5.78457,8.4095 8.53457,11.25509 2.75,2.84559 5,6.12041 5,7.27739 0,1.15698 3.19843,5.55829 7.10763,9.78069 7.65731,8.27081 13.34051,18.62673 12.05728,21.97077 -0.58909,1.53515 -0.20581,1.84598 1.47903,1.19945 1.66362,-0.63839 4.11975,1.22368 9.14845,6.93573 26.31746,29.8937 33.02573,33.16897 55.93472,27.30984 13.11402,-3.354 16.11223,-5.44635 20.41948,-14.25004 7.78132,-15.90444 15.18674,-22.53194 15.18674,-13.59141 0,7.11029 3.04048,9.10529 13.87332,9.10292 17.11462,-0.004 22.96284,-5.27294 24.67223,-22.22946 0.59648,-5.91683 1.50316,-11.43525 2.01484,-12.26317 1.72788,-2.79576 7.42105,-1.72772 8.69834,1.63181 0.9892,2.60178 2.46301,3.28641 8.63668,4.01201 9.95981,1.17058 17.45746,4.3313 20.19874,8.51503 2.99924,4.57742 2.77563,14.72503 -0.56563,25.66918 -3.37726,11.06207 -5.16855,20.32733 -6.81825,35.26671 -0.93246,8.44428 -2.00863,12.57575 -3.68068,14.13044 -1.47167,1.36838 -6.76673,2.75446 -14.03848,3.67484 -17.85203,2.25951 -31.34902,9.33895 -35.15047,18.43711 -1.33506,3.19524 -2.73679,4.49333 -4.85853,4.49933 -1.64016,0.005 -10.09966,3.60464 -18.79889,8 -21.02341,10.62227 -25.41768,10.55747 -25.59955,-0.37752 -0.0462,-2.77623 -1.05847,-6.01048 -2.25608,-7.20808 -2.00755,-2.00755 -2.23734,-1.91329 -3.02943,1.24265 -2.01502,8.02845 -8.74462,10.86062 -32.54262,13.69564 -23.65632,2.81814 -34.71653,5.42425 -50.75554,11.95954 -7.7,3.13745 -19.7,7.01708 -26.66666,8.6214 -21.85962,5.03392 -27.27631,10.33689 -33.41531,32.71375 -5.57731,20.32947 -3.92438,25.93817 14.33305,48.63471 11.07132,13.76321 22.53491,23.25268 30.51846,25.26296 3.24342,0.8167 5.89713,2.23589 5.89713,3.15375 0,2.78845 19.93473,14.55973 29.57332,17.46278 1.47415,0.44399 2.59785,2.86655 3.28667,7.08566 1.37918,8.44763 1.41044,80.34807 0.0625,143.797 l -1.0775,50.71934 16.25548,17.00572 c 22.37456,23.40724 28.97982,27.59708 47.87062,30.36524 13.91536,2.03909 18.6878,4.004 25.11523,10.34043 4.75005,4.68281 6.40226,7.52635 7.78428,13.39723 3.62787,15.41128 1.63193,25.4527 -5.05924,25.4527 -3.01951,0 -3.91831,-0.72256 -4.56102,-3.66667 -1.75566,-8.04228 -3.94271,-11.33204 -12.41611,-18.6763 -14.0789,-12.2028 -21.50092,-15.14348 -21.50092,-8.51889 0,2.58978 5.14778,6.85654 8.28643,6.86825 0.94246,0.004 5.09255,3.31122 9.2224,7.35045 5.22561,5.11094 7.91914,8.96058 8.85823,12.66028 l 1.3494,5.31621 h -16.23727 -16.23726 z m 85.83424,-83.15408 c -9.61831,-4.5502 -20.05784,-15.11575 -25.14433,-25.44788 -7.44898,-15.13103 -17.80981,-52.24516 -20.32237,-72.79797 -0.58272,-4.76667 -1.78157,-12.86667 -2.66411,-18 -1.87433,-10.9021 -1.64627,-35.16211 0.3532,-37.57132 2.78035,-3.35012 16.20037,-7.24508 25.25637,-7.3303 4.92304,-0.0463 9.60989,0.323 10.41522,0.82072 0.86121,0.53226 1.46423,5.19413 1.46423,11.31985 0,12.98662 5.05111,35.97066 10.09374,45.92952 3.97441,7.8492 12.57579,18.16486 15.14617,18.16486 3.73369,0 7.65281,-6.49091 10.46562,-17.33333 2.42433,-9.34493 3.01093,-15.77628 3.3435,-36.65696 l 0.40333,-25.32362 3.27382,-1.72028 c 2.19675,-1.15431 7.58941,-1.59616 16.39133,-1.34304 12.36431,0.35557 13.29445,0.58308 16.19908,3.96217 5.20838,6.05916 6.58553,18.86335 6.49792,60.41506 -0.0674,31.98347 -0.48969,39.68884 -2.94661,53.77089 -1.57735,9.04066 -2.87734,18.34066 -2.88887,20.66667 -0.0181,3.65161 -1.88432,5.93223 -13.66667,16.7014 -7.50513,6.85975 -15.44569,13.30109 -17.64569,14.31408 -6.62594,3.0509 -25.12538,1.66961 -34.02488,-2.54052 z m 8.11714,-110.57918 c -4.53273,-11.48587 -8.52213,-32.10686 -8.66421,-44.78474 l -0.0947,-8.4514 4.53305,0.73332 c 3.30556,0.53474 5.5829,-0.0142 8.4101,-2.02739 2.13238,-1.51838 4.02809,-2.54525 4.2127,-2.28191 3.27597,4.67297 3.00489,53.61243 -0.31911,57.61089 -2.60049,3.12814 -6.68761,2.72399 -8.07781,-0.79877 z m -6.45883,-65.0056 c -5.30423,-3.23399 -7.24307,-7.75074 -7.30261,-17.01227 -0.0618,-9.61955 2.49848,-12.31546 11.69602,-12.31546 8.87535,0 13.10224,3.13184 15.1379,11.21615 2.13191,8.46662 -1.4198,16.62629 -8.49808,19.52337 -4.19937,1.71877 -6.35,1.44358 -11.03323,-1.41179 z m 0.48413,-40.52602 c -4.11566,-1.71963 -4.57601,-2.5248 -5.90798,-10.33333 -4.24265,-24.87187 -8.09268,-71.36306 -9.1264,-110.20622 -0.81656,-30.68273 -0.79225,-31.08022 1.94493,-31.79601 2.00416,-0.5241 2.70722,-1.69006 2.53853,-4.20992 -0.53559,-8.0004 8.69203,-3.86829 11.06639,4.95551 2.01151,7.47532 5.07381,32.58836 6.01456,49.32362 0.47001,8.36112 1.65921,17.66112 2.64267,20.66667 2.29152,7.00311 3.67834,79.9627 1.56019,82.08084 -1.89374,1.89375 -5.42817,1.7353 -10.73289,-0.48116 z M 484.6653,422.68339 c -6.35103,-1.89455 -7.65533,-5.1098 -6.09896,-15.03464 1.72946,-11.02861 6.16242,-21.93762 11.17073,-27.48986 2.39405,-2.65406 5.25274,-6.98408 6.35263,-9.62227 1.12556,-2.69976 4.02313,-6.0472 6.62808,-7.65715 9.54824,-5.90113 23.22724,-23.03033 24.89208,-31.1705 0.56097,-2.74281 2.19812,-5.06622 4.46727,-6.33986 3.2551,-1.82704 3.79543,-1.79678 5.924,0.33179 1.90297,1.90298 2.04631,2.816 0.76435,4.86874 -1.26396,2.02391 -1.19405,2.67382 0.3514,3.26687 1.50872,0.57895 1.90685,3.53425 1.82646,13.55782 -0.0796,9.92801 0.37304,13.34331 2.00799,15.1499 3.16093,3.49279 2.55465,9.59789 -1.55587,15.66745 -2.01667,2.97779 -5.62858,8.3346 -8.02647,11.90401 -2.39789,3.56942 -4.05935,7.27281 -3.69213,8.22976 0.38288,0.99779 -0.74323,2.27633 -2.6402,2.99756 -2.52843,0.9613 -3.30787,2.22047 -3.30787,5.34376 0,6.2377 -4.7811,14.6379 -8.36043,14.68896 -1.6351,0.0233 -4.1729,0.97577 -5.63957,2.11656 -2.99175,2.327 -15.95345,1.90867 -25.06349,-0.8089 z m 71.50326,-24.01673 c -2.41885,-5.09146 -12.4373,-106.84272 -12.43881,-126.33333 l -9.6e-4,-12.33334 h 3.69049 c 4.72654,0 13.04032,5.63396 15.59024,10.56494 2.71706,5.25423 3.35608,10.42032 4.71299,38.10173 0.64705,13.2 2.10066,27.9 3.23025,32.66667 1.48202,6.2539 2.06153,16.01629 2.08158,35.06653 l 0.0278,26.39988 -7.65498,-0.39988 c -6.65948,-0.34787 -7.86093,-0.83336 -9.23858,-3.7332 z m -97.49493,-4.07099 c -7.30937,-4.19174 -12.26455,-10.45631 -12.27319,-15.51631 -0.003,-1.85024 -2.3724,-4.91686 -6.46462,-8.36748 -9.19947,-7.75711 -13.08937,-16.08533 -5.65456,-12.10634 3.2135,1.71982 3.28614,1.52482 1.31078,-3.51875 -0.92481,-2.36126 -1.51122,-16.50865 -1.58098,-38.14218 l -0.11089,-34.38872 3.24764,-3.12592 c 1.78621,-1.71925 7.44765,-4.47771 12.58098,-6.12991 5.13333,-1.6522 12.03333,-4.43795 15.33333,-6.19057 20.46354,-10.86808 26.12676,-15.97827 30.17089,-27.22463 1.29574,-3.60334 2.70074,-6.55153 3.12222,-6.55153 0.42147,0 4.51322,4.4899 9.09276,9.97756 4.57955,5.48766 10.26618,10.95785 12.63696,12.15597 2.37078,1.19812 5.67205,3.42365 7.33617,4.94562 4.3526,3.98083 8.33116,18.27148 9.16527,32.92085 0.81775,14.36212 0.64295,14.76703 -13.90688,32.21382 -3.87711,4.64907 -8.86888,10.71224 -11.09283,13.47373 -2.22395,2.7615 -6.04452,5.85696 -8.49015,6.87881 -2.97296,1.24218 -5.65392,3.99701 -8.08953,8.31244 -3.65735,6.48009 -9.76328,15.77088 -16.06381,24.44271 -1.86009,2.56017 -4.34265,8.11017 -5.51679,12.33334 -2.55909,9.20451 -4.26539,9.62175 -14.75277,3.60749 z M 573.10904,268.08765 c -0.75914,-1.41846 -1.38944,-4.56846 -1.40067,-7 -0.03,-6.48845 -1.63019,-8.29087 -6.49671,-7.31756 -5.55565,1.11113 -7.54531,0.14089 -10.70979,-5.2225 C 552.28335,244.78748 551.03186,244 547.27473,244 c -2.4992,0 -7.09487,0.89999 -10.21261,1.99999 -6.05865,2.13762 -14.32108,2.60282 -16.91658,0.95245 -5.73007,-3.64349 -4.19313,-14.95395 2.50254,-18.41642 2.38217,-1.23186 3.68429,-2.77726 3.26365,-3.87341 -0.38492,-1.00309 0.7536,-3.81254 2.53006,-6.24321 7.34595,-10.05127 7.63219,-14.10684 0.70692,-10.01598 -4.61212,2.72445 -12.51388,2.96152 -14.60799,0.43828 -1.18665,-1.42983 -0.22863,-3.38702 4.42459,-9.03924 10.62159,-12.90194 11.23658,-20.4683 0.74053,-9.11096 -6.67454,7.22224 -9.16669,7.61077 -11.79645,1.83908 C 505.87317,188.06155 505.89917,188 509.82342,188 c 2.46746,0 5.7364,-2.393 11.66667,-8.54048 10.34037,-10.71911 14.27534,-11.97014 37.57203,-11.94509 20.83767,0.0224 23.99517,1.04017 25.96908,8.37074 0.7902,2.93456 2.02042,5.69631 2.73382,6.13722 0.71341,0.44091 1.2971,2.49277 1.2971,4.5597 0,2.06693 0.88984,4.49656 1.97743,5.39917 1.08758,0.90261 2.99929,4.88284 4.24823,8.84496 1.24895,3.96211 3.35911,8.37199 4.68925,9.79973 3.44869,3.70174 3.14577,15.49817 -0.79713,31.04153 -3.87394,15.27156 -5.84485,19.31262 -12.09606,24.80126 -5.59521,4.91265 -11.82576,5.63443 -13.9748,1.61891 z m -184.24483,-38.91107 -5.24833,-4.15675 -7.77694,3.49008 c -11.10395,4.98316 -26.5764,4.93201 -41.59477,-0.13751 -9.97384,-3.36671 -10.83902,-3.4626 -12.03061,-1.33335 -1.14866,2.05255 -1.66323,2.09421 -4.88435,0.39542 -1.98023,-1.04436 -7.20042,-5.61196 -11.60042,-10.15023 -8.27777,-8.5379 -16.08994,-13.20427 -22.19068,-13.25496 -3.67479,-0.0305 -5.14265,-2.10959 -5.14265,-7.28395 0,-3.96609 -9.29301,-14.45631 -15.35459,-17.33272 -6.83368,-3.24279 -17.97875,-19.37409 -17.97875,-26.02232 0,-1.49377 -2.1,-5.04039 -4.66666,-7.88139 -5.32054,-5.88919 -5.74116,-9.19919 -2.48261,-19.5365 2.15953,-6.85082 2.14461,-7.01482 -1.32844,-14.60097 -3.59068,-7.84307 -6.16089,-19.98667 -6.17888,-29.193607 -0.009,-4.71363 0.24706,-5.08195 2.98993,-4.297284 6.65109,1.902707 20.71962,2.418796 25.24282,0.926006 6.93592,-2.289058 8.26256,-5.859253 7.1482,-19.236933 -0.7985,-9.585958 -1.33353,-11.417899 -3.50014,-11.984479 -1.99748,-0.522354 -2.55755,-1.868033 -2.55755,-6.145066 0,-8.008961 7.08526,-18.773401 12.35683,-18.773401 2.71954,0 14.90644,7.52376 22.0229,13.596157 5.51579,4.70657 7.70961,4.67403 22.37015,-0.3318 6.55423,-2.237937 15.18946,-4.691023 19.18939,-5.451303 3.99993,-0.760279 8.00213,-2.379239 8.89376,-3.59769 2.13981,-2.924108 22.92344,-3.183895 26.36275,-0.329524 1.22566,1.017205 8.05801,3.498745 15.18301,5.514535 7.125,2.015789 17.35761,5.264541 22.73914,7.219449 8.38815,3.047105 13.06434,3.724211 32.76526,4.744365 31.08129,1.609454 34.14515,3.020824 30.78623,14.181687 -2.882,9.576141 -17.52812,27.12079 -22.64021,27.12079 -3.088,0 -6.02921,5.56005 -6.02921,11.397589 0,6.715469 3.09021,9.957899 13.09173,13.736589 10.28927,3.8874 13.57494,6.3799 13.57494,10.29793 0,2.58591 -1.07648,3.82041 -4.62385,5.30259 -6.03218,2.52041 -9.56014,2.44633 -10.58417,-0.22226 -0.67691,-1.76399 -2.41024,-2.05339 -9.56869,-1.59757 -7.88161,0.50186 -9.06008,0.96305 -11.9735,4.68571 -4.04455,5.16798 -13.5227,7.82186 -20.57432,5.76082 -6.16235,-1.80113 -15.07778,-1.72843 -19.21515,0.15668 -5.38915,2.45546 -8.12113,9.69519 -8.00461,21.21218 0.12994,12.8424 3.71221,21.00663 15.19084,34.62088 10.75006,12.75014 19.06079,25.47485 17.59524,26.9404 -0.62624,0.62623 -3.48683,1.50008 -6.35687,1.94188 -6.58418,1.01354 -8.28574,2.38153 -10.81033,8.69109 -2.53494,6.33544 -5.49437,6.55113 -12.60584,0.91874 z M 381.09632,62.333332 c 5.36801,-3.947369 6.7528,-4.333333 15.54745,-4.333333 7.30808,0 10.20563,-0.550839 11.92192,-2.266416 3.12563,-3.124325 0.62896,-5.9182 -6.3409,-7.095752 -3.4146,-0.576892 -8.43477,-3.267927 -13.8749,-7.437562 -4.68843,-3.593482 -9.32847,-6.533603 -10.3112,-6.533603 -2.49824,0 -9.86086,7.909453 -11.56145,12.420133 -1.80395,4.784822 -1.82216,13.66128 -0.0349,17.000855 2.08387,3.893757 7.92394,3.194604 14.65395,-1.754322 z m 154.11579,95.999998 c -1.79693,-2.82022 -2.81336,-18.72105 -2.27544,-35.5968 0.26438,-8.2942 3.11278,-11.12866 10.06336,-10.01407 9.68975,1.55383 10.68303,3.61896 11.05258,22.97946 0.38054,19.93573 -0.74988,23.5879 -7.3389,23.71071 -2.34005,0.0436 -4.66895,0.49362 -5.17533,1 -1.77047,1.77047 -4.43038,0.89622 -6.32627,-2.0793 z M 52.062118,960.45027 c -0.91666,-0.36988 -2.41666,-0.36988 -3.33333,0 -0.91667,0.36989 -0.16667,0.67252 1.66667,0.67252 1.83333,0 2.58333,-0.30263 1.66666,-0.67252 z"
       id="path1" />
  </g>
</svg>
