<?xml version="1.0" encoding="UTF-8" standalone="no"?>
<!-- Created with Inkscape (http://www.inkscape.org/) -->

<svg
   width="12.009086mm"
   height="58.283695mm"
   viewBox="0 0 12.009086 58.283695"
   version="1.1"
   id="svg1"
   xml:space="preserve"
   xmlns="http://www.w3.org/2000/svg"
   xmlns:svg="http://www.w3.org/2000/svg"><defs
     id="defs1" /><g
     id="layer1"
     transform="translate(-54.31474,-107.65567)"><path
       style="fill:#d38d5f;stroke-width:0.119324"
       d="m 60.084976,165.86237 c -0.031,-0.0527 -0.5192,-1.59927 -1.08501,-3.43687 l -1.02873,-3.34108 -0.002,-17.54067 c -0.002,-17.47687 -0.0596,-20.61027 -0.42009,-22.67739 -0.24391,-1.39871 -0.98547,-3.63803 -1.99275,-6.01765 -1.28786,-3.04248 -1.53145,-4.34293 -0.92667,-4.94727 0.24092,-0.24074 0.35407,-0.24578 5.52256,-0.24578 4.70984,0 5.32467,0.0218 5.72407,0.20273 l 0.44747,0.20273 v 0.76004 c 0,0.95389 -0.17139,1.52916 -1.25501,4.21235 -0.47892,1.18585 -1.17837,3.09205 -1.55434,4.23601 l -0.68358,2.07992 -0.16057,20.46411 -0.16057,20.46412 -0.72375,2.14783 c -0.91234,2.70748 -1.46917,3.83225 -1.70145,3.43687 z"
       id="path3" /></g></svg>
